<?xml version="1.0" encoding="UTF-8" standalone="no"?>
<svg
   xmlns:dc="http://purl.org/dc/elements/1.1/"
   xmlns:cc="http://creativecommons.org/ns#"
   xmlns:rdf="http://www.w3.org/1999/02/22-rdf-syntax-ns#"
   xmlns:svg="http://www.w3.org/2000/svg"
   xmlns="http://www.w3.org/2000/svg"
   xmlns:sodipodi="http://sodipodi.sourceforge.net/DTD/sodipodi-0.dtd"
   xmlns:inkscape="http://www.inkscape.org/namespaces/inkscape"
   id="svg4107"
   version="1.1"
   viewBox="0 0 94.283669 64.818428"
   height="64.818428mm"
   width="94.283669mm"
   sodipodi:docname="motor-rotator.svg"
   inkscape:version="0.92.1 unknown">
  <sodipodi:namedview
     pagecolor="#ffffff"
     bordercolor="#666666"
     borderopacity="1"
     objecttolerance="10"
     gridtolerance="10"
     guidetolerance="10"
     inkscape:pageopacity="0"
     inkscape:pageshadow="2"
     inkscape:window-width="1920"
     inkscape:window-height="1059"
     id="namedview86"
     showgrid="false"
     inkscape:zoom="3.4900376"
     inkscape:cx="178.17386"
     inkscape:cy="122.49152"
     inkscape:window-x="0"
     inkscape:window-y="0"
     inkscape:window-maximized="1"
     inkscape:current-layer="layer1" />
  <defs
     id="defs4101" />
  <metadata
     id="metadata4104">
    <rdf:RDF>
      <cc:Work
         rdf:about="">
        <dc:format>image/svg+xml</dc:format>
        <dc:type
           rdf:resource="http://purl.org/dc/dcmitype/StillImage" />
        <dc:title></dc:title>
      </cc:Work>
    </rdf:RDF>
  </metadata>
  <g
     transform="translate(-46.596163,-60.483641)"
     id="layer1">
    <path
       style="fill:url(#path3418_1_);stroke-width:0.26458332"
       id="path3418"
       d="m 137.90367,103.28089 c -0.93424,-0.0212 -1.85816,0.40455 -2.43919,1.2237 -0.39476,0.55668 -0.5633,1.20306 -0.52917,1.83568 h -0.008 v 17.06562 h 0.008 c -0.0664,0.55404 0.35772,1.11099 1.2155,1.45521 h 0.008 c 1.31048,0.52441 3.12341,0.35269 4.05156,-0.38867 0.40323,-0.32253 0.57309,-0.70062 0.52917,-1.06654 h 0.008 v -17.06562 h -0.008 c 0.0489,-0.96176 -0.372,-1.93225 -1.21549,-2.53021 -0.49213,-0.34819 -1.06019,-0.51673 -1.62058,-0.52917 z" />
    <path
       style="fill:url(#path3420_1_);stroke-width:0.26458332"
       id="path3420"
       d="m 137.90367,103.28089 c -0.93424,-0.0212 -1.85816,0.40455 -2.43919,1.2237 -0.39476,0.55668 -0.5633,1.20306 -0.52917,1.83568 h 0.008 c 0.0765,0.46143 0.48737,0.9017 1.2073,1.19062 h 0.008 c 1.31048,0.52441 3.1234,0.35269 4.05156,-0.38867 0.30533,-0.24447 0.47493,-0.52387 0.52097,-0.80195 h 0.008 c 0.0489,-0.96176 -0.37201,-1.93225 -1.2155,-2.53021 -0.49212,-0.34819 -1.06018,-0.51673 -1.62057,-0.52917 z" />
    <path
       style="fill:none;stroke:#000000;stroke-width:0.26458332;stroke-linecap:square"
       id="path3422"
       d="m 137.90367,103.28089 c -0.93424,-0.0212 -1.85816,0.40455 -2.43919,1.2237 -0.39476,0.55668 -0.5633,1.20306 -0.52917,1.83568 h -0.008 v 17.06562 h 0.008 c -0.0664,0.55404 0.35772,1.11099 1.2155,1.45521 h 0.008 c 1.31048,0.52441 3.12341,0.35269 4.05156,-0.38867 0.40323,-0.32253 0.57309,-0.70062 0.52917,-1.06654 h 0.008 v -17.06562 h -0.008 c 0.0489,-0.96176 -0.372,-1.93225 -1.21549,-2.53021 -0.49213,-0.34819 -1.06019,-0.51673 -1.62058,-0.52917 z" />
    <path
       style="fill:#ff8040;stroke:#ff0000;stroke-width:0.26458332;stroke-linejoin:round"
       id="path5391"
       d="m 106.48361,111.46181 c 0,0 -5.25806,5.2488 -5.53429,5.53244 -0.27622,0.28363 -0.25797,0.46037 -0.25797,0.68633 -5.3e-4,0.53789 -0.003,0.87127 -0.005,1.34672 -0.002,0.48552 0.53049,0.61384 0.53049,0.61384 l 35.18562,0.002 -0.0167,-1.05622 h -34.3662 c 0,0 -0.29766,-0.2196 -0.29766,-0.5752 0,-0.3556 0.2921,-0.75645 0.2921,-0.75645 l 5.78406,-5.7822" />
    <polygon
       style="fill:#aaaaaa;stroke:#000000;stroke-width:1.1868;stroke-linecap:square;stroke-linejoin:bevel"
       id="rect4154"
       points="169.464,158.02 189.511,138.136 189.511,167.055 169.464,186.938 "
       transform="matrix(0.26458333,0,0,0.26458333,39.157205,52.187472)" />
    <path
       style="fill:#c8c8c8;stroke:#000000;stroke-width:0.26458332;stroke-linecap:square;stroke-linejoin:bevel"
       id="rect4149"
       d="m 89.319295,96.360452 -5.32474,5.291668 h 27.525135 v -5.291668 z" />
    <g
       id="g4057"
       transform="matrix(0.26458333,0,0,0.26458333,39.157205,52.187472)">
      <path
         d="m 189.433,48.016 c -0.033,0.022 -0.275,0.319 -0.531,0.625 0.19,-0.187 0.149,-0.153 0.344,-0.344 0.155,-0.205 0.212,-0.299 0.187,-0.281 z m -0.531,0.625 c -17.425,17.138 -17.948,17.603 -19.375,19.25 -1.443,1.665 -2.825,3.416 -4.125,5.25 -18.705,26.387 -16.159,61.42 4.094,84.843 l 19.75,-19.625 c -19.796,-22.937 -22.579,-56.986 -5.125,-83.156 0.826,-1.675 3.648,-5.212 4.781,-6.562 z"
         id="path14243"
         style="fill:url(#path14243_1_);stroke:#000000;stroke-linecap:square;stroke-linejoin:bevel" />
      <path
         d="m 117.589,51.953 v 178 h 51.875 v -6 h 104.032 v 6 h 52 v -178 h -52 v 15.688 c 20.49,23.429 23.128,58.687 4.344,85.188 -1.374,1.938 -2.814,3.778 -4.344,5.53 v 28.595 H 169.464 v -28.97 c -20.24,-23.422 -22.763,-58.461 -4.063,-84.843 1.287,-1.816 2.637,-3.536 4.063,-5.188 v -16 z"
         id="rect13266"
         style="fill:#e6e6e6;stroke:#000000;stroke-linecap:square" />
      <polygon
         points="169.451,51.945 117.45,51.945 137.552,31.951 189.553,31.951 "
         id="rect3149"
         style="fill:#c8c8c8;stroke:#000000;stroke-width:1.19079995;stroke-linecap:square;stroke-linejoin:bevel" />
      <polygon
         points="345.553,31.951 325.451,51.945 273.45,51.945 293.553,31.951 "
         id="rect3151"
         style="fill:#c8c8c8;stroke:#000000;stroke-width:1.19079995;stroke-linecap:square;stroke-linejoin:bevel" />
      <polygon
         points="325.502,52.081 345.501,32.4 345.501,210.434 325.502,230.113 "
         id="rect3153"
         style="fill:#aaaaaa;stroke:#000000;stroke-width:1.18449998;stroke-linecap:square;stroke-linejoin:bevel" />
      <polygon
         points="169.502,67.99 169.502,51.949 189.5,32.069 189.5,48.109 "
         id="rect4162"
         style="fill:#aaaaaa;stroke:#000000;stroke-width:1.1875;stroke-linecap:square;stroke-linejoin:bevel" />
    </g>
    <path
       style="fill:#aaaaaa;stroke:#000000;stroke-width:0.26458332;stroke-linecap:square;stroke-linejoin:bevel"
       id="rect4164"
       d="m 84.003015,111.4335 v 1.63724 l 1.64545,-1.63724 z" />
    <path
       style="fill:#0050fe;fill-opacity:0.85100002;stroke:#0000ff;stroke-width:0.34173471"
       id="path9317"
       d="m 102.26146,75.698166 c 0,0 1.35014,-1.520717 3.68655,-4.174142 0.61822,-0.551999 1.48566,0.411992 0.99365,1.124722 -2.25644,2.557426 -3.6798,4.206509 -3.6798,4.206509" />
    <g
       id="g11301"
       transform="matrix(0.26458333,0,0,0.26458333,16.062855,30.967022)">
      <path
         style="fill:#ff8040;stroke:#ff0000;stroke-linejoin:round"
         id="path11303"
         d="m 330.811,246.656 c 0,0 0.002,0.063 0.006,-2.563 -0.513,-1.433 -2.9,-2.051 -3.988,-1.005 -6.646,6.619 -24.055,24.081 -24.055,24.081 0,0 0.004,30.631 0,41.137 0.191,0.938 1.988,1.503 2.859,0.888 0.871,-0.639 2.879,-2.754 4.162,-4.056 -3.113,0.013 -0.25,-0.002 -3.039,-0.004 l 0.041,-36.987 21.574,-21.5" />
      <path
         style="fill:#ff8040;stroke:#ff0000;stroke-linecap:square"
         id="path11305"
         d="m 307.781,305.136 h 0.335" />
    </g>
    <g
       id="g11307"
       transform="matrix(0.26458333,0,0,0.26458333,19.237855,30.967022)">
      <path
         style="fill:#ff8040;stroke:#ff0000;stroke-linejoin:round"
         id="path11309"
         d="m 330.811,246.656 c 0,0 0.002,0.063 0.006,-2.563 -0.513,-1.433 -2.9,-2.051 -3.988,-1.005 -6.646,6.619 -24.055,24.081 -24.055,24.081 0,0 0.004,30.631 0,41.137 0.191,0.938 1.988,1.503 2.859,0.888 0.871,-0.639 2.879,-2.754 4.162,-4.056 -3.113,0.013 -0.25,-0.002 -3.039,-0.004 l 0.041,-36.987 21.574,-21.5" />
      <path
         style="fill:#ff8040;stroke:#ff0000;stroke-linecap:square"
         id="path11311"
         d="m 307.781,305.136 h 0.335" />
    </g>
    <path
       style="fill:url(#path3442_1_);stroke-width:0.26458332"
       id="path3442"
       d="m 49.704815,103.28089 c -0.93424,-0.0212 -1.85843,0.40455 -2.43919,1.2237 -0.3945,0.55668 -0.5633,1.20306 -0.52917,1.83568 h -0.008 v 17.06562 h 0.008 c -0.0661,0.55404 0.35772,1.11099 1.2155,1.45521 h 0.008 c 1.31074,0.52441 3.12314,0.35269 4.05156,-0.38867 0.40323,-0.32253 0.57335,-0.70062 0.52917,-1.06654 h 0.008 v -17.06562 h -0.008 c 0.0487,-0.96176 -0.37227,-1.93225 -1.2155,-2.53021 -0.49159,-0.34819 -1.06018,-0.51673 -1.62057,-0.52917 z" />
    <path
       style="fill:url(#path3444_1_);stroke-width:0.26458332"
       id="path3444"
       d="m 49.704815,103.28089 c -0.93424,-0.0212 -1.85843,0.40455 -2.43919,1.2237 -0.3945,0.55668 -0.5633,1.20306 -0.52917,1.83568 h 0.008 c 0.0765,0.46143 0.48736,0.9017 1.2073,1.19062 h 0.008 c 1.31074,0.52441 3.12314,0.35269 4.05156,-0.38867 0.3056,-0.24447 0.47493,-0.52387 0.52097,-0.80195 h 0.008 c 0.0487,-0.96176 -0.37227,-1.93225 -1.2155,-2.53021 -0.49159,-0.34819 -1.06018,-0.51673 -1.62057,-0.52917 z" />
    <path
       style="fill:none;stroke:#000000;stroke-width:0.26458332;stroke-linecap:square"
       id="path3446"
       d="m 49.704815,103.28089 c -0.93424,-0.0212 -1.85843,0.40455 -2.43919,1.2237 -0.3945,0.55668 -0.5633,1.20306 -0.52917,1.83568 h -0.008 v 17.06562 h 0.008 c -0.0661,0.55404 0.35772,1.11099 1.2155,1.45521 h 0.008 c 1.31074,0.52441 3.12314,0.35269 4.05156,-0.38867 0.40323,-0.32253 0.57335,-0.70062 0.52917,-1.06654 h 0.008 v -17.06562 h -0.008 c 0.0487,-0.96176 -0.37227,-1.93225 -1.2155,-2.53021 -0.49159,-0.34819 -1.06018,-0.51673 -1.62057,-0.52917 z" />
    <g
       id="g11267"
       transform="matrix(0.26458333,0,0,0.26458333,16.062855,30.970912)">
      <path
         style="fill:#ff0000;stroke:#ff8040;stroke-linecap:square"
         id="path11271"
         d="m 307.781,305.136 h 0.335" />
    </g>
    <g
       id="g11273"
       transform="matrix(0.26458333,0,0,0.26458333,12.887855,30.967022)">
      <path
         style="fill:#ff8040;stroke:#ff0000;stroke-linejoin:round"
         id="path11275"
         d="m 330.811,246.656 c 0,0 0.002,0.063 0.006,-2.563 -0.513,-1.433 -2.9,-2.051 -3.988,-1.005 -6.646,6.619 -24.055,24.081 -24.055,24.081 0,0 0.004,30.631 10e-4,41.137 0.19,0.938 1.988,1.503 2.859,0.888 0.871,-0.639 2.879,-2.754 4.162,-4.056 -3.112,0.013 -0.249,-0.002 -3.038,-0.004 l 0.041,-36.987 21.573,-21.5" />
      <path
         style="fill:#e9a230;fill-opacity:0.8667;stroke:#c00000;stroke-linecap:square"
         id="path11277"
         d="m 307.781,305.136 h 0.335" />
    </g>
    <path
       style="fill:none;stroke:#000000;stroke-width:0.26458332;stroke-linecap:square"
       id="path3424"
       d="m 137.90367,103.28089 c -0.93424,-0.0212 -1.85816,0.40455 -2.43919,1.2237 -0.39476,0.55668 -0.5633,1.20306 -0.52917,1.83568 h 0.008 c 0.0765,0.46143 0.48737,0.9017 1.2073,1.19062 h 0.008 c 1.31048,0.52441 3.1234,0.35269 4.05156,-0.38867 0.30533,-0.24447 0.47493,-0.52387 0.52097,-0.80195 h 0.008 c 0.0489,-0.96176 -0.37201,-1.93225 -1.2155,-2.53021 -0.49212,-0.34819 -1.06018,-0.51673 -1.62057,-0.52917 z" />
    <g
       id="g11313"
       transform="matrix(0.26458333,0,0,0.26458333,22.412855,30.967022)">
      <path
         style="fill:#ff8040;stroke:#ff0000;stroke-linejoin:round"
         id="path11315"
         d="m 330.811,246.656 c 0,0 0.002,0.063 0.006,-2.563 -0.513,-1.433 -2.9,-2.051 -3.988,-1.005 -6.646,6.619 -24.055,24.081 -24.055,24.081 0,0 0.004,30.631 0,41.137 0.191,0.938 1.988,1.503 2.859,0.888 0.871,-0.639 2.879,-2.754 4.162,-4.056 -3.113,0.013 -0.25,-0.002 -3.039,-0.004 l 0.041,-36.987 21.574,-21.5" />
      <path
         style="fill:#ff8040;stroke:#ff0000;stroke-linecap:square"
         id="path11317"
         d="m 307.781,305.136 h 0.335" />
    </g>
    <g
       id="g3232"
       transform="matrix(0.26458333,0,0,0.26458333,19.237855,30.970912)">
      <path
         style="fill:#ff0000;stroke:#ff8040;stroke-linecap:square"
         id="path3234"
         d="m 307.781,305.136 h 0.335" />
    </g>
    <g
       id="g3236"
       transform="matrix(0.26458333,0,0,0.26458333,22.412855,30.970912)">
      <path
         style="fill:#ff0000;stroke:#ff8040;stroke-linecap:square"
         id="path3238"
         d="m 307.781,305.136 h 0.335" />
    </g>
    <g
       id="g11279"
       transform="matrix(0.26458333,0,0,0.26458333,9.7128552,30.967022)">
      <path
         style="fill:#ff8040;stroke:#ff0000;stroke-linejoin:round"
         id="path11281"
         d="m 330.811,246.656 c 0,0 0.002,0.063 0.006,-2.563 -0.513,-1.433 -2.9,-2.051 -3.988,-1.005 -1.66,1.654 -26.02,26.021 -29.12,29.064 -1.073,1.478 -0.919,3.328 -0.919,3.328 0,0 0.003,45.068 0,55.574 0.19,0.939 0.701,1.633 1.97,2.1 13.318,0.014 2.742,-0.006 20.033,0.009 -0.003,-2.3 0.021,-0.779 -0.004,-4.023 -9.371,0.019 -3.527,0.009 -16.497,0.026 -0.905,0.018 -1.454,-0.354 -1.533,-1.282 0,0 0.022,-52.729 0.019,-52.97 0.125,-0.723 0.153,-0.633 0.937,-1.495 0.784,-0.86 1.277,-1.425 1.575,-1.742 6.776,-6.767 25.208,-25.03 25.208,-25.03" />
    </g>
    <g
       id="rotater"
       transform="matrix(0.26458333,0,0,0.26458333,39.157205,52.187472)">
      <path
         d="m 206.462,56.938 -13.21,12.89 71.229,71.21 13.078,-13.023 -68.375,-68.5 z"
         id="path4320"
         style="fill:#b4b4b4;stroke:#000000" />
      <path
         d="m 275.596,129.951 12.859,-13.038 h 1.281 l -0.041,0.827 -12.305,12.317 c -0.197,-0.103 -1.191,-0.003 -1.794,-0.106 z"
         id="path4326"
         style="fill:#b3b3b3;stroke:#000000" />
      <path
         d="m 289.943,117.457 -12.438,12.496 -0.135,3.091 -7.938,14.913 12.084,-11.952 8.617,-15.247 z"
         id="path4328"
         style="fill:#aaaaaa;stroke:#000000" />
      <path
         d="m 186.442,65.007 12.118,-12.224 4.307,-2.843 11.927,-6.01 2.671,-0.022 -0.074,1.559 -11.781,11.817 -4.145,-0.126 z"
         id="path4332"
         style="fill:#bebebe;stroke:#000000" />
      <path
         d="m 193.406,69.931 71.117,71.109 10.955,-11.085 2.063,0.032 0.01,2.663 -7.954,15.185 -12.341,12.033 -3.899,3.149 -12.582,6.022 -1.213,-0.095 -1.17,-2.037 11.176,-10.939 -71.014,-71.177 -10.914,11.147 h -2.028 l -0.029,-2.912 8.81,-15.929 12.131,-12.071 15.22,-8.133 4.485,0.354 z"
         id="path4169"
         style="fill:#cccccc;stroke:#000000;stroke-linejoin:bevel" />
      <path
         d="m 216.465,61.94 -0.984,0.008 -30.977,31.016 v 1.828 l 0.883,1.164 1.125,-0.008 30.993,-30.961 0.009,-2.078 z"
         id="path4340"
         style="fill:#ff8040;stroke:#ff0000;stroke-linejoin:round" />
      <path
         d="m 222.465,67.94 -0.984,0.008 -30.977,31.016 v 1.828 l 0.883,1.164 1.125,-0.008 30.993,-30.961 0.009,-2.078 z"
         id="path5311"
         style="fill:#ff8040;stroke:#ff0000;stroke-linejoin:round" />
      <path
         d="m 228.465,73.94 -0.984,0.008 -30.977,31.016 v 1.828 l 0.883,1.164 1.125,-0.008 30.993,-30.961 0.009,-2.078 z"
         id="path5313"
         style="fill:#ff8040;stroke:#ff0000;stroke-linejoin:round" />
      <path
         d="m 234.465,79.94 -0.984,0.008 -30.977,31.016 v 1.828 l 0.883,1.164 1.125,-0.008 30.993,-30.961 0.009,-2.078 z"
         id="path5315"
         style="fill:#ff8040;stroke:#ff0000;stroke-linejoin:round" />
      <path
         d="m 246.465,91.94 -0.984,0.008 -30.977,31.016 v 1.828 l 0.883,1.164 1.125,-0.008 30.992,-30.961 0.008,-2.078 z"
         id="path5319"
         style="fill:#ff8040;stroke:#ed3535;stroke-linejoin:round" />
      <path
         d="m 252.465,97.94 -0.984,0.008 -30.977,31.016 v 1.828 l 0.883,1.164 1.125,-0.008 30.992,-30.961 0.008,-2.078 z"
         id="path5321"
         style="fill:#ff8040;stroke:#ff0000;stroke-linejoin:round" />
      <path
         d="m 258.465,103.94 -0.984,0.008 -30.977,31.016 v 1.828 l 0.883,1.164 1.125,-0.008 30.992,-30.961 0.008,-2.078 z"
         id="path5323"
         style="fill:#ff8040;stroke:#ed3535;stroke-linejoin:round" />
      <path
         d="m 264.465,109.94 -0.984,0.008 -30.977,31.016 v 1.828 l 0.883,1.164 1.125,-0.008 30.992,-30.961 0.008,-2.078 z"
         id="path5325"
         style="fill:#ff8040;stroke:#ff0000;stroke-linejoin:round" />
      <path
         d="m 270.465,115.94 -0.984,0.008 -30.977,31.015 v 1.828 l 0.883,1.164 1.125,-0.008 30.992,-30.96 0.008,-2.078 z"
         id="path5327"
         style="fill:#ff8040;stroke:#ff0000;stroke-linejoin:round" />
      <path
         d="m 240.465,85.94 -0.984,0.008 -30.977,31.016 v 1.828 l 0.883,1.164 1.125,-0.008 30.992,-30.961 0.008,-2.078 z"
         id="path5317"
         style="fill:#ff8040;stroke:#ff0000;stroke-linejoin:round" />
    </g>
    <path
       style="fill:#0050fe;fill-opacity:0.85100002;stroke:#0000ff;stroke-width:0.34173471"
       id="path9312"
       d="m 96.274809,82.706104 c -0.123008,0.0082 -0.246004,0.05566 -0.361304,0.159275 -1.133678,1.287625 -1.003606,1.13672 -1.475391,1.670522 0.368368,0.343646 0.704303,0.723272 1.003618,1.125094 0.435808,-0.499635 0.766269,-0.878547 1.465426,-1.670537 0.399515,-0.579636 -0.100504,-1.321448 -0.632349,-1.284354 z" />
    <path
       style="fill:#ff6519;stroke:#000000;stroke-width:0.26458332;stroke-linecap:square;stroke-linejoin:round"
       id="path5372"
       d="m 85.690625,92.748862 c -2.08767,-2.85636 -1.46512,-6.8644 1.3904,-8.95291 2.85562,-2.08875 6.86366,-1.46789 8.9535,1.38697 2.0901,2.85495 1.47041,6.86283 -1.38354,8.95409 -2.85386,2.09102 -6.86241,1.47333 -8.95451,-1.37977" />
    <path
       style="stroke-width:0.26458332"
       id="path11295"
       d="m 96.299525,89.060602 c 0,0.57811 -0.46857,1.04669 -1.04642,1.04669 -0.57785,0 -1.0467,-0.46858 -1.0467,-1.04669 0,-0.57785 0.46858,-1.04643 1.0467,-1.04643 0.57758,0 1.04642,0.46858 1.04642,1.04643 z" />
    <path
       style="fill:url(#path5374_1_);stroke:#000000;stroke-width:0.26458332;stroke-linecap:square;stroke-linejoin:round"
       id="path5374"
       d="m 92.014865,81.304072 c -1.65232,0.0423 -3.27025,0.7202 -4.46484,1.96797 l -0.008,-0.008 -0.77735,0.77735 c 2.17779,-1.8116 5.38533,-2.01295 7.80521,-0.29766 2.88581,2.0455 3.56685,6.04388 1.52135,8.92969 -0.11985,0.16854 -0.24818,0.3257 -0.38047,0.47969 l 0.0331,0.0331 0.74428,-0.74427 0.0579,-0.0497 c 0.31035,-0.29078 0.59584,-0.61543 0.85169,-0.97579 2.04523,-2.88581 1.36419,-6.89239 -1.52136,-8.93789 -1.17236,-0.83132 -2.5265,-1.20861 -3.86132,-1.17422 z" />
    <path
       style="fill:#ebeb96;stroke:#000000;stroke-width:0.26458332"
       id="rotator-shaft"
       d="m 85.212183,85.951974 c 2.430396,2.243787 6.672687,6.223217 9.053978,8.447763 0.972084,-0.607561 1.724678,-1.449357 2.272286,-2.464458 -2.480234,-2.30802 -6.634951,-6.172352 -9.025576,-8.421994 -0.986222,0.619686 -1.701104,1.332856 -2.300688,2.438689 z"
       inkscape:connector-curvature="0" />
    <rect
       style="fill:#ff8041;stroke:#000000;stroke-width:0.26458332;stroke-linecap:square;stroke-linejoin:round"
       id="rect11297"
       x="93.791016"
       y="88.692558"
       width="1.8563166"
       height="30.954664" />
    <path
       style="stroke-width:0.26458332"
       id="path11299"
       d="m 95.241195,89.610402 c 0,0.29713 -0.24077,0.5379 -0.5379,0.5379 -0.29713,0 -0.5379,-0.24077 -0.5379,-0.5379 0,-0.29713 0.24077,-0.5379 0.5379,-0.5379 0.29713,0 0.5379,0.24077 0.5379,0.5379 z" />
    <path
       style="stroke-width:0.26458332"
       id="path11289"
       d="m 87.572515,89.060602 c 0,0.57811 -0.46858,1.04669 -1.0467,1.04669 -0.57811,0 -1.04642,-0.46858 -1.04642,-1.04669 0,-0.57785 0.46857,-1.04643 1.04642,-1.04643 0.57785,0 1.0467,0.46858 1.0467,1.04643 z" />
    <path
       style="fill:#0050fe;stroke:#0000ff;stroke-width:0.33948016"
       id="path5337"
       d="m 87.063213,91.694581 c 0,0 0.748225,-0.741091 3.217939,-3.218272 0.653162,-0.515335 1.570432,0.384627 1.050351,1.050004 -2.385531,2.387905 -3.210805,3.248155 -3.210805,3.248155" />
    <rect
       style="fill:#ff8041;stroke:#000000;stroke-width:0.26458332;stroke-linecap:square;stroke-linejoin:round"
       id="rect11285"
       x="85.06427"
       y="88.692558"
       width="1.8563166"
       height="30.947519" />
    <path
       style="stroke:#0000ff;stroke-width:0.61106437;stroke-linecap:square;stroke-linejoin:round"
       id="path6385"
       d="m 88.233404,92.212622 c 0,0.343556 -0.27871,0.622613 -0.6226,0.622613 -0.344236,0 -0.622945,-0.279057 -0.622612,-0.622613 0,-0.34457 0.27871,-0.623279 0.622612,-0.623279 0.34389,0 0.6226,0.278709 0.6226,0.623279 z" />
    <path
       style="fill:none;stroke:#000000;stroke-width:0.26458332;stroke-linecap:square"
       id="path3448"
       d="m 49.704815,103.28089 c -0.93424,-0.0212 -1.85843,0.40455 -2.43919,1.2237 -0.3945,0.55668 -0.5633,1.20306 -0.52917,1.83568 h 0.008 c 0.0765,0.46143 0.48736,0.9017 1.2073,1.19062 h 0.008 c 1.31074,0.52441 3.12314,0.35269 4.05156,-0.38867 0.3056,-0.24447 0.47493,-0.52387 0.52097,-0.80195 h 0.008 c 0.0487,-0.96176 -0.37227,-1.93225 -1.2155,-2.53021 -0.49159,-0.34819 -1.06018,-0.51673 -1.62057,-0.52917 z" />
    <path
       style="fill:#ff8040;stroke:#ff0000;stroke-width:0.26458332;stroke-linejoin:round"
       id="path6362"
       d="m 85.328055,118.05734 v 1.0631 l -34.14025,-0.007 0.002,-1.05622 z" />
    <path
       style="stroke-width:0.26458332"
       id="path11287"
       d="m 86.514175,89.610402 c 0,0.29713 -0.24077,0.5379 -0.53789,0.5379 -0.29713,0 -0.5379,-0.24077 -0.5379,-0.5379 0,-0.29713 0.24077,-0.5379 0.5379,-0.5379 0.29712,0 0.53789,0.24077 0.53789,0.5379 z" />
    <rect
       style="fill:#ff0000;stroke-width:0.26458332"
       id="rect11321"
       x="85.445801"
       y="118.18911"
       width="1.0625666"
       height="0.79374999" />
    <path
       style="fill:#ff8040;stroke:#ff0000;stroke-width:0.26458332;stroke-linejoin:round"
       id="path3286"
       d="m 93.605545,119.11462 c 0.28204,0 0.0521,-2.7e-4 0.3802,0 -10e-4,-0.60828 0.01,-0.20823 0,-1.06654 -0.2159,2.7e-4 -0.20346,-2.6e-4 -0.3802,0" />
    <rect
       style="fill:#ff0000;stroke-width:0.26458332"
       id="rect11319"
       x="94.120956"
       y="118.18911"
       width="1.062302"
       height="0.79374999" />
  </g>
</svg>
